<svg xmlns="http://www.w3.org/2000/svg" version="1.1" xmlns:xlink="http://www.w3.org/1999/xlink" xmlns:svgjs="http://svgjs.dev/svgjs" width="1000" height="1000" viewBox="0 0 1000 1000"><rect width="1000" height="1000" fill="#398378"></rect><g transform="matrix(0.7,0,0,0.7,149.57575757575756,441.01886689293565)"><svg viewBox="0 0 396 67" data-background-color="#398378" preserveAspectRatio="xMidYMid meet" height="169" width="1000" xmlns="http://www.w3.org/2000/svg" xmlns:xlink="http://www.w3.org/1999/xlink"><defs></defs><g id="tight-bounds" transform="matrix(1,0,0,1,0.2400000000000091,-0.09563889963385463)"><svg viewBox="0 0 395.52 67.19127779926771" height="67.19127779926771" width="395.52"><g><svg viewBox="0 0 493.7212862414185 83.87379677199364" height="67.19127779926771" width="395.52"><g transform="matrix(1,0,0,1,0,11.591819959081612)"><svg viewBox="0 0 395.52 60.690156853830416" height="60.690156853830416" width="395.52"><g><svg viewBox="0 0 395.52 60.690156853830416" height="60.690156853830416" width="395.52"><g><svg viewBox="0 0 395.52 60.690156853830416" height="60.690156853830416" width="395.52"><g transform="matrix(1,0,0,1,0,0)"><svg width="395.52" viewBox="-0.49000000953674316 -32.400001525878906 214.77999877929688 32.96000289916992" height="60.690156853830416" data-palette-color="#000201"><path d="M19.19-11.3L23.24-9.74Q22.66-7.4 21.68-5.49 20.7-3.59 19.3-2.25 17.9-0.9 16.03-0.17 14.16 0.56 11.74 0.56L11.74 0.56Q8.4 0.56 6.08-0.82 3.76-2.2 2.28-4.5 0.81-6.81 0.16-9.78-0.49-12.74-0.49-15.94L-0.49-15.94Q-0.49-19.14 0.16-22.12 0.81-25.1 2.26-27.37 3.71-29.64 5.96-31.02 8.2-32.4 11.45-32.4L11.45-32.4Q12.5-32.4 13.57-32.13 14.65-31.86 15.58-31.31 16.5-30.76 17.2-29.96 17.9-29.15 18.19-28.1L18.19-28.1 18.19-31.86 22.75-31.86 22.75-19.8 18.19-19.8Q18.19-21.29 17.82-22.74 17.46-24.19 16.65-25.32 15.84-26.44 14.62-27.15 13.4-27.86 11.74-27.86L11.74-27.86Q9.59-27.86 8.23-26.81 6.86-25.76 6.03-24.05 5.2-22.34 4.87-20.21 4.54-18.09 4.54-15.94L4.54-15.94Q4.54-13.79 4.87-11.65 5.2-9.5 6.01-7.8 6.81-6.1 8.2-5.05 9.59-4 11.74-4L11.74-4Q14.84-4 16.52-5.98 18.19-7.96 19.19-11.3L19.19-11.3ZM26.49-15.94L26.49-15.94Q26.49-19.14 27.17-22.12 27.85-25.1 29.29-27.37 30.73-29.64 33.07-31.02 35.4-32.4 38.69-32.4L38.69-32.4Q41.99-32.4 44.32-31.02 46.65-29.64 48.12-27.37 49.58-25.1 50.24-22.12 50.9-19.14 50.9-15.94L50.9-15.94Q50.9-12.74 50.24-9.78 49.58-6.81 48.14-4.5 46.7-2.2 44.37-0.82 42.04 0.56 38.69 0.56L38.69 0.56Q35.35 0.56 33.02-0.82 30.69-2.2 29.23-4.5 27.78-6.81 27.13-9.78 26.49-12.74 26.49-15.94ZM31.54-15.94L31.54-15.94Q31.54-13.79 31.87-11.65 32.2-9.5 32.99-7.8 33.79-6.1 35.17-5.05 36.55-4 38.69-4L38.69-4Q40.84-4 42.22-5.05 43.6-6.1 44.39-7.8 45.19-9.5 45.52-11.65 45.85-13.79 45.85-15.94L45.85-15.94Q45.85-18.09 45.52-20.21 45.19-22.34 44.39-24.05 43.6-25.76 42.2-26.81 40.79-27.86 38.69-27.86L38.69-27.86Q35.2-27.86 33.37-24.71 31.54-21.56 31.54-15.94ZM76.14-31.86L76.14 0 70.28 0 60.83-23.1 60.83 0 55.78 0 55.78-31.86 62.13-31.86 71.09-9.91 71.09-31.86 76.14-31.86ZM100.77-31.86L106.07-31.86 96.14 0 90.37 0 80.44-31.86 85.73-31.86 93.28-6.64 100.77-31.86ZM130.73-4.54L130.73 0 110.37 0 110.37-31.86 130.73-31.86 130.73-27.29 115.42-27.29 115.42-18.51 127.36-18.51 127.36-13.94 115.42-13.94 115.42-4.54 130.73-4.54ZM160.71 0L155.41 0 153.11-7.59 142.57-7.59 140.32 0 135.02 0 144.96-31.86 150.77-31.86 160.71 0ZM147.86-25.2L143.91-12.06 151.77-12.06 147.86-25.2ZM185.7-8.74L185.7-8.74Q185.7-6.54 184.96-4.82 184.21-3.1 182.93-1.9 181.65-0.71 179.88-0.07 178.11 0.56 176.11 0.56L176.11 0.56Q173.86 0.56 172.06-0.24 170.25-1.05 168.95-2.91L168.95-2.91 168.95 0 164.41 0 164.41-10.4 168.95-10.4Q168.95-8.84 169.5-7.64 170.05-6.45 170.96-5.63 171.86-4.81 173.06-4.38 174.25-3.96 175.6-3.96L175.6-3.96Q177.87-3.96 179.26-5 180.65-6.05 180.65-8.35L180.65-8.35Q180.65-9.55 180.22-10.4 179.79-11.25 179-11.93 178.21-12.6 177.06-13.1 175.91-13.6 174.45-14.16L174.45-14.16Q172.71-14.75 170.98-15.48 169.25-16.21 167.88-17.29 166.51-18.36 165.66-19.93 164.8-21.51 164.8-23.9L164.8-23.9Q164.8-26 165.57-27.58 166.34-29.15 167.62-30.22 168.91-31.3 170.6-31.85 172.3-32.4 174.2-32.4L174.2-32.4Q176.4-32.4 177.98-31.47 179.55-30.54 180.4-29L180.4-29 180.4-31.86 184.95-31.86 184.95-21.95 180.4-21.95Q180.4-24.76 178.93-26.33 177.45-27.91 174.96-27.91L174.96-27.91Q172.76-27.91 171.31-26.88 169.86-25.85 169.86-24L169.86-24Q169.86-23.05 170.24-22.38 170.61-21.7 171.34-21.15 172.06-20.61 173.15-20.13 174.25-19.65 175.69-19.09L175.69-19.09Q177.5-18.46 179.28-17.65 181.06-16.85 182.48-15.67 183.9-14.5 184.8-12.83 185.7-11.16 185.7-8.74ZM214.29-31.86L214.29-27.29 211.99-27.29 204.94-12.99 204.94-4.54 210.04-4.54 210.04 0 194.81 0 194.81-4.54 199.88-4.54 199.88-12.99 192.85-27.29 190.56-27.29 190.56-31.86 200.59-31.86 200.59-27.29 198.4-27.29 202.45-17.94 206.45-27.29 204.25-27.29 204.25-31.86 214.29-31.86Z" opacity="1" transform="matrix(1,0,0,1,0,0)" fill="#000201" class="undefined-text-0" data-fill-palette-color="primary" id="text-0"></path></svg></g></svg></g></svg></g></svg></g><g transform="matrix(1,0,0,1,409.84748946942483,0)"><svg viewBox="0 0 83.87379677199364 83.87379677199364" height="83.87379677199364" width="83.87379677199364"><g data-palette-color="#c9efc7"><rect width="22.925504451011594" height="83.87379677199364" fill="#c9efc7" stroke="transparent" data-fill-palette-color="accent" x="0" fill-opacity="1"></rect><rect width="22.925504451011594" height="83.87379677199364" fill="#c9efc7" stroke="transparent" data-fill-palette-color="accent" x="27.957932257331212" fill-opacity="0.75"></rect><rect width="22.925504451011594" height="83.87379677199364" fill="#c9efc7" stroke="transparent" data-fill-palette-color="accent" x="55.915864514662424" fill-opacity="0.5"></rect></g></svg></g></svg></g></svg><rect width="395.52" height="67.19127779926771" fill="none" stroke="none" visibility="hidden"></rect></g></svg></g></svg>